<svg xmlns="http://www.w3.org/2000/svg" viewBox="0 0 23.92 18.56"><defs><style>.cls-1{fill:none;stroke:#f09600;stroke-linecap:round;stroke-linejoin:round;stroke-width:1.42px;}</style></defs><title>A-tila</title><g id="Layer_2" data-name="Layer 2"><g id="IKONIT"><g id="Building-Construction_Houses_house-modern" data-name="Building-Construction / Houses / house-modern"><g id="Group_10" data-name="Group 10"><g id="house-modern"><path id="Shape_40" data-name="Shape 40" class="cls-1" d="M.75,17.85H23.21"/><path id="Shape_41" data-name="Shape 41" class="cls-1" d="M9.73,17.85H2.24V8.12l7.49-1.5V17.85Z"/><path id="Shape_42" data-name="Shape 42" class="cls-1" d="M21.71,17.85h-12V1.38l12,5.24V17.85Z"/><path id="Shape_43" data-name="Shape 43" class="cls-1" d="M12.73,6.25a.38.38,0,0,1,.37.37"/><path id="Shape_44" data-name="Shape 44" class="cls-1" d="M12.35,6.62a.37.37,0,0,1,.38-.37"/><path id="Shape_45" data-name="Shape 45" class="cls-1" d="M12.73,7a.38.38,0,0,1-.38-.38"/><path id="Shape_46" data-name="Shape 46" class="cls-1" d="M13.1,6.62a.39.39,0,0,1-.11.27.36.36,0,0,1-.26.11"/><path id="Shape_47" data-name="Shape 47" class="cls-1" d="M18.72,17.85h-6V13.36a1.5,1.5,0,0,1,1.5-1.5h3a1.5,1.5,0,0,1,1.5,1.5Z"/><path id="Shape_48" data-name="Shape 48" class="cls-1" d="M.71,8.43l9-1.81"/><path id="Shape_49" data-name="Shape 49" class="cls-1" d="M8.2.71l15,6.56"/><path id="Shape_50" data-name="Shape 50" class="cls-1" d="M18.72,5.3V1.38h3V6.62"/></g></g></g></g></g></svg>