<svg xmlns="http://www.w3.org/2000/svg" viewBox="0 0 27.9 19.39"><defs><style>.cls-1{fill:none;stroke:#f09600;stroke-linecap:round;stroke-linejoin:round;stroke-width:1.42px;}</style></defs><title>B-hlomaara</title><g id="Layer_2" data-name="Layer 2"><g id="IKONIT"><g id="Group_7" data-name="Group 7"><g id="family-hold"><path id="Oval_14" data-name="Oval 14" class="cls-1" d="M22.46,8.27a3.78,3.78,0,1,0-3.78-3.78A3.78,3.78,0,0,0,22.46,8.27Z"/><path id="Shape_29" data-name="Shape 29" class="cls-1" d="M27.19,14.9a4.73,4.73,0,0,0-7.57-3.79"/><path id="Oval_15" data-name="Oval 15" class="cls-1" d="M5.44,8.27A3.78,3.78,0,1,0,1.65,4.49,3.78,3.78,0,0,0,5.44,8.27Z"/><path id="Shape_30" data-name="Shape 30" class="cls-1" d="M.71,14.9a4.73,4.73,0,0,1,7.56-3.79"/><path id="Oval_16" data-name="Oval 16" class="cls-1" d="M14,12.06a2.84,2.84,0,1,0-2.84-2.84A2.84,2.84,0,0,0,14,12.06Z"/><path id="Shape_31" data-name="Shape 31" class="cls-1" d="M14,14a4.71,4.71,0,0,0-4.33,2.84"/><path id="Shape_32" data-name="Shape 32" class="cls-1" d="M14,14a4.73,4.73,0,0,1,4.73,4.73"/></g></g></g></g></svg>