<svg xmlns="http://www.w3.org/2000/svg" viewBox="0 0 24.42 24.42"><defs><style>.cls-1{fill:none;stroke:#f09600;stroke-linecap:round;stroke-linejoin:round;stroke-width:1.42px;}</style></defs><title>C-hinta</title><g id="Layer_2" data-name="Layer 2"><g id="IKONIT"><g id="Money-Payments-Finance_Money_accounting-coins-stack" data-name="Money-Payments-Finance / Money / accounting-coins-stack"><g id="Group_18" data-name="Group 18"><g id="accounting-coins-stack"><path id="Oval_6" data-name="Oval 6" class="cls-1" d="M8.21,4.71c4.14,0,7.5-.9,7.5-2s-3.36-2-7.5-2-7.5.89-7.5,2S4.07,4.71,8.21,4.71Z"/><path id="Shape_157" data-name="Shape 157" class="cls-1" d="M15.71,2.71v3c0,1.1-3.36,2-7.5,2s-7.5-.9-7.5-2v-3"/><path id="Shape_158" data-name="Shape 158" class="cls-1" d="M15.71,5.71v3c0,1.1-3.36,2-7.5,2s-7.5-.9-7.5-2v-3"/><path id="Oval_7" data-name="Oval 7" class="cls-1" d="M16.21,17.71c4.14,0,7.5-.9,7.5-2s-3.36-2-7.5-2-7.5.89-7.5,2S12.07,17.71,16.21,17.71Z"/><path id="Shape_159" data-name="Shape 159" class="cls-1" d="M23.71,15.71v3c0,1.1-3.36,2-7.5,2s-7.5-.9-7.5-2v-3"/><path id="Shape_160" data-name="Shape 160" class="cls-1" d="M23.71,18.71v3c0,1.1-3.36,2-7.5,2s-7.5-.9-7.5-2v-3"/><path id="Shape_161" data-name="Shape 161" class="cls-1" d="M15.71,8.71v3c0,1.1-3.36,2-7.5,2s-7.5-.9-7.5-2v-3"/><path id="Shape_162" data-name="Shape 162" class="cls-1" d="M.71,11.71v3c0,1.1,3.36,2,7.5,2h.5"/><path id="Shape_163" data-name="Shape 163" class="cls-1" d="M.71,14.71v3c0,1.1,3.36,2,7.5,2h.5"/><path id="Shape_164" data-name="Shape 164" class="cls-1" d="M15.71,11.71v2"/></g></g></g></g></g></svg>