<svg xmlns="http://www.w3.org/2000/svg" viewBox="0 0 24.1 24.1"><defs><style>.cls-1{fill:none;stroke:#000;stroke-linecap:round;stroke-linejoin:round;}</style></defs><title>FI</title><g id="Layer_2" data-name="Layer 2"><g id="ylä_ja_alapalkki" data-name="ylä ja alapalkki"><g id="astronomy-earth-rotation"><path id="Oval_39" data-name="Oval 39" class="cls-1" d="M12.05,23.6A11.55,11.55,0,1,0,.5,12.05,11.55,11.55,0,0,0,12.05,23.6Z"/><path id="Shape_383" data-name="Shape 383" class="cls-1" d="M20.52,4.35s-4.13,1.29-3.71,1.54c3.85,2.31-.63,5.49-.63,5.88s1.37,2.62.63,3.36c-2.61,2.61-1,4.62-4.62,4.62-.49,0-2.31-1.05-2.31-1.54,0-2.51,3.1-7.7-2.31-7.7-1.47,0-1.68-1.89-1.68-1.89,0-4.34,4.9-5,4.9-3.43,1,1,2.94-1.61,2.94-1.61L12.19.5"/></g></g></g></svg>