<svg xmlns="http://www.w3.org/2000/svg" viewBox="0 0 114.3 153.47"><defs><style>.cls-1{fill:#f09600;}</style></defs><title>icon-pitaakokouksen</title><g id="Layer_2" data-name="Layer 2"><g id="IKONIT"><path class="cls-1" d="M57.15,0A57.15,57.15,0,0,0,0,57.15c0,31.56,57.15,96.32,57.15,96.32S114.3,88.71,114.3,57.15A57.15,57.15,0,0,0,57.15,0Zm0,147.34C52.23,141.53,42,129.1,31.8,114.78,13.61,89.14,4,69.21,4,57.15a53.15,53.15,0,0,1,106.3,0c0,12.06-9.61,32-27.8,57.63C72.34,129.1,62.07,141.53,57.15,147.34Z"/><path class="cls-1" d="M41.83,51A10.15,10.15,0,1,0,31.68,40.84,10.15,10.15,0,0,0,41.83,51Zm0-16.29a6.15,6.15,0,1,1-6.15,6.15A6.16,6.16,0,0,1,41.83,34.69Z"/><path class="cls-1" d="M41.83,51.05A14.24,14.24,0,0,0,27.61,65.27v8.14a2,2,0,0,0,2,2h2.26L33.73,94a2,2,0,0,0,2,1.8H47.94a2,2,0,0,0,2-1.8l1.85-18.56H54a2,2,0,0,0,2-2V65.27A14.23,14.23,0,0,0,41.83,51.05ZM52,71.41H50a2,2,0,0,0-2,1.8L46.13,91.77h-8.6L35.67,73.21a2,2,0,0,0-2-1.8H31.61V65.27a10.23,10.23,0,0,1,8.22-10V69.34h4V55.25a10.22,10.22,0,0,1,8.21,10Z"/><path class="cls-1" d="M86.62,30.69H58.11v4H86.62a2.08,2.08,0,0,1,2.07,2.08V71.38a2.07,2.07,0,0,1-2.07,2.07H62.19v4H86.62a6.09,6.09,0,0,0,6.07-6.07V36.77A6.09,6.09,0,0,0,86.62,30.69Z"/></g></g></svg>