<svg xmlns="http://www.w3.org/2000/svg" viewBox="0 0 114.3 153.47"><defs><style>.cls-1{fill:#f09600;}</style></defs><title>icon-vuokratatapahtumatarvikkeita</title><g id="Layer_2" data-name="Layer 2"><g id="IKONIT"><path class="cls-1" d="M57.15,0A57.15,57.15,0,0,0,0,57.15c0,31.56,57.15,96.32,57.15,96.32S114.3,88.71,114.3,57.15A57.15,57.15,0,0,0,57.15,0Zm0,147.34C52.23,141.53,42,129.1,31.8,114.78,13.61,89.14,4,69.21,4,57.15a53.15,53.15,0,0,1,106.3,0c0,12.06-9.61,32-27.8,57.63C72.34,129.1,62.07,141.53,57.15,147.34Z"/><path class="cls-1" d="M78.87,64.12V31.39h-4v2.16H41.43V31.39h-4V64.11a27.09,27.09,0,0,1-3.33-1.23l-1.81,3.57a36,36,0,0,0,6.24,2.14l16.2,11.69L38.26,92.15,40.6,95.4,58.15,82.74,75.7,95.4,78,92.15,61.57,80.28l16.2-11.69A35.23,35.23,0,0,0,84,66.45l-1.8-3.57A25.88,25.88,0,0,1,78.87,64.12Zm-4-26.57V46H41.43V37.55ZM41.43,50H74.87V65.18a77.32,77.32,0,0,1-16.72,1.68,77.43,77.43,0,0,1-16.72-1.69ZM58.15,77.81,47.69,70.27a91,91,0,0,0,10.46.59,91,91,0,0,0,10.46-.59Z"/></g></g></svg>