<svg xmlns="http://www.w3.org/2000/svg" viewBox="0 0 114.3 153.47"><defs><style>.cls-1{fill:#f09600;}</style></defs><title>icon-valmistaaesineita</title><g id="Layer_2" data-name="Layer 2"><g id="IKONIT"><path class="cls-1" d="M57.15,0A57.15,57.15,0,0,0,0,57.15c0,31.56,57.15,96.32,57.15,96.32S114.3,88.71,114.3,57.15A57.15,57.15,0,0,0,57.15,0Zm0,147.34C52.23,141.53,42,129.1,31.8,114.78,13.61,89.14,4,69.21,4,57.15a53.15,53.15,0,0,1,106.3,0c0,12.06-9.61,32-27.8,57.63C72.34,129.1,62.07,141.53,57.15,147.34Z"/><path class="cls-1" d="M44.83,56.59H57.16A2,2,0,0,0,59,53.81,17.24,17.24,0,0,0,44.46,43.48a17.52,17.52,0,0,0-16.18,7.69,16.15,16.15,0,0,0-1.1,16.07l-5.72,5.64,2.81,2.84,4.66-4.61,2.13-2a2,2,0,0,0,.32-2.49,12.18,12.18,0,0,1,.24-13.21,13.74,13.74,0,0,1,22.07-.78H44.83a7.54,7.54,0,1,0,0,15.07H53.7a13.29,13.29,0,0,1-6.48,4.54,13.9,13.9,0,0,1-11.14-1.11,2,2,0,0,0-2.37.3l-7.55,7.26,2.77,2.89,6.53-6.28a17.9,17.9,0,0,0,13,.74A17.06,17.06,0,0,0,59,66.43a2,2,0,0,0-1.84-2.77H44.83a3.54,3.54,0,1,1,0-7.07Z"/><path class="cls-1" d="M76.69,57.81A3.9,3.9,0,0,0,80.61,54V50.44h1.84v-4H80.61V42.71a5.71,5.71,0,0,0,3.84-5.34,5.77,5.77,0,0,0-5.84-5.69H67.08a5.67,5.67,0,0,0-2,11v3.73H63.24v4h1.84V54A3.88,3.88,0,0,0,69,57.81ZM67.08,35.68H78.61a1.7,1.7,0,1,1,0,3.38H67.08a1.7,1.7,0,1,1,0-3.38Zm2,7.38h7.53v3.38H69.08Zm7.53,7.38v3.37H69.08V50.44Z"/><path class="cls-1" d="M90.34,73.42,80.2,68.15a6,6,0,0,0-7.88,2.28,5.56,5.56,0,0,0-.49,4.33,5.7,5.7,0,0,0,1.23,2.15l-1.88,3.33-1.68-.87-1.84,3.55,1.55.8-1.72,3.06a3.81,3.81,0,0,0-.33,3A3.89,3.89,0,0,0,69.08,92l6.75,3.51a4,4,0,0,0,1.84.45,4.11,4.11,0,0,0,1.1-.15A3.87,3.87,0,0,0,81.11,94l1.79-3.18,1.66.86,1.84-3.55-1.53-.79,1.85-3.29a6.09,6.09,0,0,0,.85.07,5.89,5.89,0,0,0,5.14-2.95,5.52,5.52,0,0,0,.49-4.33A5.63,5.63,0,0,0,90.34,73.42ZM77.67,92l-6.6-3.43,1.69-3L79.36,89Zm-2.94-9.92,1.69-3L83,82.51l-1.69,3Zm14.5-2.87a1.92,1.92,0,0,1-2.47.73l-.07,0L76.55,74.64s0,0-.07,0a1.71,1.71,0,0,1-.81-1,1.49,1.49,0,0,1,.14-1.22,1.93,1.93,0,0,1,2.54-.7L88.49,77a1.7,1.7,0,0,1,.88,1A1.57,1.57,0,0,1,89.23,79.21Z"/></g></g></svg>