<svg xmlns="http://www.w3.org/2000/svg" viewBox="0 0 114.3 153.47"><defs><style>.cls-1{fill:#f09600;}</style></defs><title>icon-liikkua</title><g id="Layer_2" data-name="Layer 2"><g id="IKONIT"><path class="cls-1" d="M57.15,0A57.15,57.15,0,0,0,0,57.15c0,31.56,57.15,96.32,57.15,96.32S114.3,88.71,114.3,57.15A57.15,57.15,0,0,0,57.15,0Zm0,147.34C52.23,141.53,42,129.1,31.8,114.78,13.61,89.14,4,69.21,4,57.15a53.15,53.15,0,0,1,106.3,0c0,12.06-9.61,32-27.8,57.63C72.34,129.1,62.07,141.53,57.15,147.34Z"/><path class="cls-1" d="M53.12,48.34a9.17,9.17,0,1,0-8.89-9.17A9,9,0,0,0,53.12,48.34Zm0-14.34a5.18,5.18,0,1,1-4.89,5.17A5,5,0,0,1,53.12,34Z"/><path class="cls-1" d="M80.65,79.12h3a3,3,0,0,0-3-3v0a3,3,0,0,0-3,3h0a3,3,0,0,0,3,3v0a3,3,0,0,0,3-3Z"/><path class="cls-1" d="M84.49,36.56a8.87,8.87,0,0,0-7.89-.43,13.84,13.84,0,0,0-8.33,14.09A9.18,9.18,0,0,0,71,55.84l-1.87,3.3a5.66,5.66,0,0,0-2.25-.46H59.34L52.46,50.8a5.82,5.82,0,0,0-5.24-2,5.94,5.94,0,0,0-4.5,3.34L34.85,68.54a15,15,0,0,0-1.45,6.37v5.28l-5.52,4.32A6.24,6.24,0,0,0,26.7,93a5.87,5.87,0,0,0,3.95,2.41,5.74,5.74,0,0,0,4.41-1.18l6.3-4.92a10.39,10.39,0,0,0,3.85-7.06l3.28,1.47,3,7.88a6,6,0,0,0,4.66,3.83,5.1,5.1,0,0,0,.87.07,5.88,5.88,0,0,0,4.7-2.37,6.27,6.27,0,0,0,.81-6l-3.33-8.66A10,10,0,0,0,54,72.86l-6.56-2.92,2.2-4.6,4.38,4a5.83,5.83,0,0,0,4,1.55h8.93a6,6,0,0,0,5.94-6.1,6.14,6.14,0,0,0-.69-2.84l2.36-4.15a8.78,8.78,0,0,0,2.17.27c3.76,0,7.76-2.35,10.14-6.38a13.29,13.29,0,0,0,1.87-8.41A8.89,8.89,0,0,0,84.49,36.56ZM66.88,66.88H58a1.85,1.85,0,0,1-1.25-.5h0l-6.37-5.81a2,2,0,0,0-3.15.61l-4.26,8.88a2,2,0,0,0,1,2.69l8.44,3.76a6,6,0,0,1,3.15,3.38l3.33,8.68a2.26,2.26,0,0,1-.28,2.15,1.89,1.89,0,0,1-1.77.75,2,2,0,0,1-1.53-1.3L51.93,81.5a2,2,0,0,0-1-1.11l-6.79-3a2,2,0,0,0-1.91.15,2,2,0,0,0-.91,1.68v2a6.36,6.36,0,0,1-2.38,5L32.6,91.06a1.78,1.78,0,0,1-1.38.38A1.85,1.85,0,0,1,30,90.65a2.23,2.23,0,0,1,.39-3l6.3-4.92a2,2,0,0,0,.76-1.57V74.91a11,11,0,0,1,1.05-4.64L46.32,53.9a1.94,1.94,0,0,1,1.46-1.11,1.84,1.84,0,0,1,1.66.64L56.92,62a2,2,0,0,0,1.51.68h8.45a2.11,2.11,0,0,1,0,4.2ZM83.36,49.64c-2.2,3.72-6.19,5.44-8.88,3.85a5,5,0,0,1-2.25-3.78,9.89,9.89,0,0,1,5.83-9.85,5.85,5.85,0,0,1,2.18-.44,4.33,4.33,0,0,1,2.22.58,5,5,0,0,1,2.24,3.79A9.28,9.28,0,0,1,83.36,49.64Z"/></g></g></svg>