<svg xmlns="http://www.w3.org/2000/svg" viewBox="0 0 114.3 153.47"><defs><style>.cls-1{fill:#f09600;}</style></defs><title>icon-pitaanayttely</title><g id="Layer_2" data-name="Layer 2"><g id="IKONIT"><path class="cls-1" d="M57.15,0A57.15,57.15,0,0,0,0,57.15c0,31.56,57.15,96.32,57.15,96.32S114.3,88.71,114.3,57.15A57.15,57.15,0,0,0,57.15,0Zm0,147.34C52.23,141.53,42,129.1,31.8,114.78,13.61,89.14,4,69.21,4,57.15a53.15,53.15,0,0,1,106.3,0c0,12.06-9.61,32-27.8,57.63C72.34,129.1,62.07,141.53,57.15,147.34Z"/><path class="cls-1" d="M82.29,30.73h0a7.54,7.54,0,0,0-6.75,4.15L63.86,58.32A9.53,9.53,0,0,0,56,61.78c-2.36,2.74-2.36,6-2.37,9s0,5.29-1.78,7.4a2,2,0,0,0,1.34,3.28q1,.09,2,.09a19.69,19.69,0,0,0,15.31-7.29,9.52,9.52,0,0,0,2-9.44c-.07-.19-.16-.36-.23-.55L88.35,42.8a7.57,7.57,0,0,0-6.06-12.07ZM67.46,71.57l-.08.09a15.74,15.74,0,0,1-10.57,5.77,19.59,19.59,0,0,0,.82-6.68c0-2.55,0-4.74,1.44-6.4a5.54,5.54,0,1,1,8.39,7.22ZM85.15,40.4,69.76,60.78a10,10,0,0,0-2-1.37l11.3-22.73a3.54,3.54,0,0,1,3.18-2h0a3.57,3.57,0,0,1,2.87,5.67Z"/><path class="cls-1" d="M64.71,86.73a18.44,18.44,0,0,1-20.6,3.57C33.64,84.86,27.59,72.81,28.56,68.85c.14-.6.37-.88,1.26-.88,1.34,0,1.44.22,2.18,1.89,1.23,2.75,3.08,6.9,12.52,9.3l1-3.88c-7.56-1.92-8.82-4.76-9.84-7-.85-1.9-1.9-4.26-5.84-4.26a5,5,0,0,0-5.15,3.93C23.07,74.47,31,88,42.34,93.89a22.49,22.49,0,0,0,25.19-4.32l.22-.23-2.84-2.81Z"/></g></g></svg>