<svg xmlns="http://www.w3.org/2000/svg" viewBox="0 0 114.3 153.47"><defs><style>.cls-1{fill:#f09600;}</style></defs><title>icon-saunoa</title><g id="Layer_2" data-name="Layer 2"><g id="IKONIT"><path class="cls-1" d="M57.15,0A57.15,57.15,0,0,0,0,57.15c0,31.56,57.15,96.32,57.15,96.32S114.3,88.71,114.3,57.15A57.15,57.15,0,0,0,57.15,0Zm0,147.34c-4.92-5.8-15.16-18.2-25.31-32.51C13.63,89.17,4,69.22,4,57.15a53.15,53.15,0,0,1,106.3,0c0,12.06-9.61,32-27.8,57.63C72.34,129.1,62.07,141.53,57.15,147.34Z"/><rect class="cls-1" x="26.94" y="83.75" width="20.54" height="4"/><path class="cls-1" d="M73.27,70.28a6.15,6.15,0,0,0-5.24-3H55.37L48.84,54.25a6.11,6.11,0,0,0-10.35-.93L26.16,69.76a6.1,6.1,0,0,0,1.23,8.55,6,6,0,0,0,4.52,1.16,6.09,6.09,0,0,0,4-2.38l6.39-8.52,3.8,7.58a6.07,6.07,0,0,0,5.46,3.38H53.7V89.86a6.11,6.11,0,0,0,12.22,0v-8L72.47,93a6.11,6.11,0,0,0,5.27,3h.08A6.1,6.1,0,0,0,83,86.73Zm6.31,20.63A2.11,2.11,0,0,1,77.77,92a2.07,2.07,0,0,1-1.85-1L67.43,76.52a2,2,0,0,0-1.73-1H63.92a2,2,0,0,0-2,2V89.86a2.11,2.11,0,0,1-4.22,0V77.53a2,2,0,0,0-2-2H51.59a2.1,2.1,0,0,1-1.88-1.17L44.46,63.89a2,2,0,0,0-1.6-1.1,2,2,0,0,0-1.78.79L32.74,74.69a2.1,2.1,0,0,1-1.39.82A2.12,2.12,0,0,1,29,73.72a2.13,2.13,0,0,1,.4-1.56L41.7,55.71a2.05,2.05,0,0,1,1.87-.82A2.09,2.09,0,0,1,45.26,56l7.08,14.17a2,2,0,0,0,1.79,1.1H68a2.13,2.13,0,0,1,1.8,1l9.7,16.47A2.09,2.09,0,0,1,79.58,90.91Z"/><path class="cls-1" d="M43.65,49.58a8.72,8.72,0,0,0,1.75.17,9.17,9.17,0,1,0-1.75-.17ZM41.76,36.89a5.19,5.19,0,0,1,8.76,2.64A5.19,5.19,0,0,1,40.34,41.6,5.22,5.22,0,0,1,41.76,36.89Z"/><path class="cls-1" d="M88.19,31.44l-3.58,1.79c1.32,2.64.72,3.43-.37,4.87-1.81,2.37-3.12,4.9.56,9.81l3.2-2.4c-2.17-2.89-1.71-3.51-.58-5C88.7,38.84,90.62,36.31,88.19,31.44Z"/><path class="cls-1" d="M77.73,45.51c-2.18-2.89-1.71-3.51-.58-5,1.28-1.68,3.2-4.21.76-9.08l-3.57,1.79c1.32,2.64.72,3.43-.37,4.87-1.81,2.37-3.12,4.9.56,9.81Z"/><path class="cls-1" d="M67.45,45.51c-2.17-2.89-1.7-3.51-.57-5,1.27-1.68,3.2-4.21.76-9.08l-3.57,1.79c1.32,2.64.72,3.43-.37,4.87-1.81,2.37-3.13,4.9.55,9.81Z"/></g></g></svg>