<svg xmlns="http://www.w3.org/2000/svg" viewBox="0 0 114.3 153.47"><defs><style>.cls-1{fill:#f09600;}</style></defs><title>icon-esiintya</title><g id="Layer_2" data-name="Layer 2"><g id="IKONIT"><path class="cls-1" d="M57.15,0A57.15,57.15,0,0,0,0,57.15c0,31.56,57.15,96.32,57.15,96.32S114.3,88.71,114.3,57.15A57.15,57.15,0,0,0,57.15,0Zm0,147.34c-4.92-5.8-15.16-18.2-25.31-32.51C13.63,89.17,4,69.22,4,57.15a53.15,53.15,0,0,1,106.3,0c0,12.06-9.61,32-27.8,57.63C72.34,129.1,62.07,141.53,57.15,147.34Z"/><path class="cls-1" d="M90.28,43.86a9,9,0,1,0-13.54,7.81A13.91,13.91,0,0,0,69.68,57a18.26,18.26,0,0,0-23.06,0,13.91,13.91,0,0,0-7.06-5.34,9,9,0,1,0-9,0,14,14,0,0,0-3.69,1.88l2.34,3.25A10.06,10.06,0,0,1,44.3,61l.86-.37,1.92,1.55a14.24,14.24,0,0,1,22.14,0l1.92-1.55L72,61A10.06,10.06,0,0,1,87.11,56.8l2.34-3.25a14,14,0,0,0-3.69-1.88A9,9,0,0,0,90.28,43.86Zm-55.23-5a5,5,0,1,1-5,5A5,5,0,0,1,35.05,38.83Zm46.2,10.06a5,5,0,1,1,5-5A5,5,0,0,1,81.25,48.89Z"/><path class="cls-1" d="M58.15,52.89a11,11,0,1,0-11-11A11,11,0,0,0,58.15,52.89Zm0-18.08a7,7,0,1,1-7,7A7.05,7.05,0,0,1,58.15,34.81Z"/><path class="cls-1" d="M69.71,66.1a6.05,6.05,0,0,0-5.37-.85l-12,3.34-.1,0a6,6,0,0,0-4.12,5.71v7.39a6.91,6.91,0,0,0-3-.69,7,7,0,1,0,7,7V74.33a2,2,0,0,1,1.35-1.91l12-3.33.1,0A2,2,0,0,1,68.2,71v6.73a7,7,0,0,0-3-.7,7,7,0,1,0,7,7h0V71A6,6,0,0,0,69.71,66.1Zm-24.62,25a3,3,0,1,1,3-3A3,3,0,0,1,45.09,91.07Zm20.09-4a3,3,0,1,1,3-3A3,3,0,0,1,65.18,87.06Z"/></g></g></svg>