<svg xmlns="http://www.w3.org/2000/svg" viewBox="0 0 126 39.8"><defs><style>.cls-1,.cls-3{fill:#005cb9;}.cls-2{fill:#80bc00;}.cls-3{fill-rule:evenodd;}</style></defs><title>LPR-logo</title><g id="Layer_2" data-name="Layer 2"><g id="ylä_ja_alapalkki" data-name="ylä ja alapalkki"><path class="cls-1" d="M83.78,10.11a27.88,27.88,0,0,1-11.43,8.33c-13.32,4.89-27-7.85-39.69-2.33-1.58.69-3.59,2.44-4,2.31,2.84-3.18,6.17-6.44,9.77-8.2,15.72-7.72,28.12,8.55,45.39-.11Z"/><path class="cls-2" d="M97.33,1.58a21.61,21.61,0,0,1-8.88,6.47c-10.35,3.8-21-6.1-30.83-1.81-1.23.54-2.79,1.9-3.14,1.8a27.07,27.07,0,0,1,7.59-6.38c12.21-6,21.84,6.65,35.26-.08Z"/><path class="cls-1" d="M1.28,35.32c0,3.8,0,4-1.28,4v.35c.6,0,1.83,0,3.22,0s3,0,3.9,0c0-.84,0-1.57.09-2.61H6.88a1.91,1.91,0,0,1-.32,1.1,1.41,1.41,0,0,1-1.08.33H3.05c-.28,0-.38-.09-.38-.37v-6c0-3.56,0-3.8,1.23-3.8V28c-.58,0-1.2,0-1.93,0S.61,28,0,28v.34c1.25,0,1.25.24,1.25,3.8v3.16Z"/><path class="cls-3" d="M16,36.3c1.05,2.83,1.16,3.05-.12,3.05v.35c.46,0,1.25,0,2,0s1.32,0,1.64,0v-.35c-.87,0-1-.23-2.45-4L14.2,27.85h-.3l-3,7.47c-1.52,3.8-1.65,4-2.53,4v.35c.34,0,.91,0,1.67,0s1.4,0,1.93,0v-.35c-1.31,0-1.22-.23-.1-3.05Zm-3.68-1.09v0C13.77,31.32,13.87,31,14,30.74h0c.06.29.18.58,1.58,4.43v0Z"/><path class="cls-3" d="M21.9,35.32c0,3.8,0,4-1.21,4v.35c.62,0,1.2,0,1.9,0s1.25,0,1.92,0v-.35c-1.25,0-1.27-.23-1.27-3.53v-.73a8.45,8.45,0,0,0,1.12,0,5.26,5.26,0,0,0,2-.52,3.21,3.21,0,0,0,1.37-1.36,3.62,3.62,0,0,0,.46-1.8,3.08,3.08,0,0,0-1.84-3A5.44,5.44,0,0,0,24,28l-.91,0c-.28,0-.55,0-.83,0H20.66v.32c1.24,0,1.24.23,1.24,3.77v3.18Zm4.83-3.85a3.15,3.15,0,0,1-.3,1.3,2.24,2.24,0,0,1-1,.91A3.44,3.44,0,0,1,24,34c-.28,0-.5,0-.76,0V29.16l.9,0a3.19,3.19,0,0,1,1.49.32,2.13,2.13,0,0,1,1.1,2Z"/><path class="cls-3" d="M31.09,35.32c0,3.8,0,4-1.2,4v.35c.61,0,1.19,0,1.89,0s1.25,0,1.92,0v-.35c-1.25,0-1.27-.23-1.27-3.53v-.73a8.44,8.44,0,0,0,1.12,0,5.26,5.26,0,0,0,2-.52A3.21,3.21,0,0,0,36.9,33.2a3.62,3.62,0,0,0,.47-1.8,3.09,3.09,0,0,0-1.85-3,5.44,5.44,0,0,0-2.3-.4l-.9,0c-.29,0-.56,0-.84,0H29.86v.32c1.23,0,1.23.23,1.23,3.77v3.18Zm4.83-3.85a3,3,0,0,1-.3,1.3,2.19,2.19,0,0,1-1,.91,3.44,3.44,0,0,1-1.46.31c-.28,0-.5,0-.76,0V29.16l.9,0a3.19,3.19,0,0,1,1.49.32,2.13,2.13,0,0,1,1.1,2Z"/><path class="cls-1" d="M40.29,35.32c0,3.8,0,4-1.18,4v.35c.7,0,1.74,0,3.11,0s2.86,0,3.91,0c0-.85.06-1.79.1-2.51H45.9c-.13,1.21-.55,1.31-1.38,1.33H42.28c-.56,0-.59-.05-.59-.63V34.27h1.76c1.31,0,1.66,0,1.75.88h.32c0-.47-.06-1-.06-1.49s0-.88.06-1.26H45.2c-.1.73-.47.76-1.8.76H41.69v-4H44c1.23,0,1.47.22,1.53,1.44h.33c0-.89,0-1.76.1-2.57-1,0-2.47,0-3.87,0s-2.25,0-2.94,0v.34c1.11,0,1.11.24,1.11,3.8v3.16Z"/><path class="cls-1" d="M49.85,35.32c0,3.8,0,4-1.18,4v.35c.7,0,1.75,0,3.12,0s2.86,0,3.9,0c0-.85.06-1.79.11-2.51h-.33c-.14,1.21-.55,1.31-1.39,1.33H51.85c-.57,0-.6-.05-.6-.63V34.27H53c1.31,0,1.67,0,1.76.88h.31c0-.47-.06-1-.06-1.49s0-.88.06-1.26h-.31c-.11.73-.48.76-1.8.76H51.25v-4h2.34c1.24,0,1.48.22,1.54,1.44h.32c0-.89,0-1.76.11-2.57-1,0-2.48,0-3.88,0s-2.25,0-2.93,0v.34c1.1,0,1.1.24,1.1,3.8v3.16Z"/><path class="cls-1" d="M68.21,32.19c0-3.56,0-3.83,1.13-3.83V28c-.58,0-1.16,0-1.8,0l-1.85,0v.34c1.31,0,1.31.27,1.31,3.83s0,4.11,0,4.69h0c-.79-1-1.25-1.59-2-2.4C64,33.23,62.26,31.23,59.51,28h-.27V35.3c0,3.79,0,4.05-1.3,4.05v.35c.63,0,1.1,0,1.79,0l2,0v-.35c-1.29,0-1.29-.26-1.29-4.05V31h0c.76,1,1.3,1.63,2,2.45,1,1.24,2.72,3.19,5.45,6.38h.27V32.19Z"/><path class="cls-3" d="M72.48,35.32c0,3.8,0,4-1.22,4v.35c.66,0,1.24,0,1.92,0s1.24,0,1.84,0v-.35c-1.18,0-1.2-.23-1.2-3.63v-.9l1,0c1,1.5,2,3,3,4.45a.89.89,0,0,0,.76.39h2v-.33a1.91,1.91,0,0,1-1.59-1c-1.62-2.32-2.12-3-2.68-3.8v0a3.92,3.92,0,0,0,1.13-.61,3.39,3.39,0,0,0,1.24-2.67,3,3,0,0,0-1.9-3,5.61,5.61,0,0,0-2-.3l-.91,0-.88,0H71.25v.31c1.23,0,1.23.24,1.23,3.8v3.16Zm4.67-4a2.33,2.33,0,0,1-1,2,3,3,0,0,1-1.63.43c-.28,0-.47,0-.73,0V29.16c.23,0,.61,0,1,0a2.1,2.1,0,0,1,2.36,2.22Z"/><path class="cls-3" d="M88.56,36.3c1.06,2.83,1.16,3.05-.12,3.05v.35c.46,0,1.25,0,2,0s1.33,0,1.64,0v-.35c-.86,0-1-.23-2.44-4L86.8,27.85h-.3l-3,7.47c-1.52,3.8-1.65,4-2.53,4v.35c.34,0,.91,0,1.67,0s1.4,0,1.94,0v-.35c-1.32,0-1.23-.23-.11-3.05Zm-3.68-1.09v0c1.48-3.85,1.58-4.16,1.66-4.43h0c.06.29.18.58,1.58,4.43l0,0Z"/><path class="cls-1" d="M103.4,32.19c0-3.56,0-3.83,1.13-3.83V28c-.58,0-1.16,0-1.8,0l-1.85,0v.34c1.31,0,1.31.27,1.31,3.83s0,4.11,0,4.69h0c-.79-1-1.25-1.59-2-2.4-1.07-1.25-2.76-3.25-5.51-6.52h-.27V35.3c0,3.79,0,4.05-1.3,4.05v.35c.63,0,1.11,0,1.79,0l2,0v-.35c-1.28,0-1.28-.26-1.28-4.05V31h0c.76,1,1.29,1.63,2,2.45,1,1.24,2.72,3.19,5.45,6.38h.27V32.19Z"/><path class="cls-1" d="M109.89,35.32c0,3.81,0,4-1.32,4v.35c.5,0,1.28,0,2,0s1.47,0,2,0v-.35c-1.34,0-1.34-.22-1.34-4V29.13h2.1c1.13,0,1.39.27,1.44,1.55h.33V28c-1.13,0-2.46,0-3.87,0h-1.39c-1.19,0-2.48,0-3.9,0v2.65h.31c.11-1.26.36-1.55,1.52-1.55h2.07v6.19Z"/><path class="cls-3" d="M122.44,36.3c1.06,2.83,1.16,3.05-.12,3.05v.35c.46,0,1.25,0,2,0s1.33,0,1.64,0v-.35c-.87,0-1-.23-2.44-4l-2.88-7.47h-.3l-3,7.47c-1.52,3.8-1.65,4-2.53,4v.35c.34,0,.91,0,1.67,0s1.4,0,1.94,0v-.35c-1.32,0-1.23-.23-.11-3.05Zm-3.68-1.09v0c1.48-3.85,1.58-4.16,1.66-4.43h0c.06.29.18.58,1.58,4.43l0,0Z"/></g></g></svg>