<svg xmlns="http://www.w3.org/2000/svg" viewBox="0 0 106 33.48"><defs><style>.cls-1,.cls-2{fill:#1d1d1b;}.cls-2{fill-rule:evenodd;}</style></defs><title>LPR-logo-black</title><g id="Layer_2" data-name="Layer 2"><g id="ylä_ja_alapalkki" data-name="ylä ja alapalkki"><path class="cls-1" d="M70.48,8.51a23.42,23.42,0,0,1-9.61,7c-11.21,4.11-22.76-6.61-33.39-2-1.33.58-3,2.06-3.4,1.95,2.38-2.68,5.19-5.42,8.22-6.91C45.52,2.1,56,15.79,70.48,8.51Z"/><path class="cls-1" d="M81.88,1.33a18.1,18.1,0,0,1-7.47,5.44C65.7,10,56.73,1.64,48.47,5.25c-1,.45-2.35,1.6-2.64,1.51A22.78,22.78,0,0,1,52.22,1.4c10.27-5,18.37,5.59,29.66-.07Z"/><path class="cls-1" d="M1.08,29.71c0,3.2,0,3.38-1.08,3.4v.29c.5,0,1.54,0,2.71,0s2.49,0,3.28,0c0-.71,0-1.32.08-2.2H5.79a1.54,1.54,0,0,1-.28.93,1.15,1.15,0,0,1-.9.28h-2c-.24,0-.33-.08-.33-.32v-5c0-3,0-3.19,1-3.19v-.29l-1.63,0L0,23.57v.29c1.05,0,1.05.2,1.05,3.19v2.66Z"/><path class="cls-2" d="M13.42,30.54c.89,2.38,1,2.57-.1,2.57v.29c.39,0,1.06,0,1.72,0s1.12,0,1.38,0v-.29c-.73,0-.82-.2-2.06-3.4l-2.42-6.28h-.25l-2.5,6.28c-1.28,3.2-1.39,3.4-2.13,3.4v.29c.28,0,.76,0,1.4,0s1.18,0,1.63,0v-.29c-1.1,0-1-.2-.09-2.57Zm-3.09-.92v0c1.24-3.23,1.33-3.49,1.39-3.72h0c0,.24.15.49,1.33,3.72l0,0Z"/><path class="cls-2" d="M18.42,29.71c0,3.2,0,3.4-1,3.4v.29c.51,0,1,0,1.59,0s1.05,0,1.62,0v-.29c-1.05,0-1.07-.2-1.07-3v-.62c.27,0,.63,0,.94,0a4.34,4.34,0,0,0,1.67-.44,2.64,2.64,0,0,0,1.15-1.14,3,3,0,0,0,.39-1.52,2.59,2.59,0,0,0-1.55-2.52,4.63,4.63,0,0,0-1.93-.33h-.77l-.7,0H17.38v.28c1,0,1,.19,1,3.17v2.67Zm4.07-3.23a2.73,2.73,0,0,1-.25,1.09,1.82,1.82,0,0,1-.82.76,2.88,2.88,0,0,1-1.23.26,4.51,4.51,0,0,1-.64,0v-4l.76,0a2.72,2.72,0,0,1,1.25.26,1.8,1.8,0,0,1,.93,1.69v0Z"/><path class="cls-2" d="M26.16,29.71c0,3.2,0,3.4-1,3.4v.29c.52,0,1,0,1.59,0s1.06,0,1.62,0v-.29c-1.05,0-1.06-.2-1.06-3v-.62c.26,0,.62,0,.94,0a4.25,4.25,0,0,0,1.66-.44,2.72,2.72,0,0,0,1.16-1.14,3.15,3.15,0,0,0,.39-1.52,2.6,2.6,0,0,0-1.56-2.52A4.6,4.6,0,0,0,28,23.56h-.76l-.71,0H25.12v.28c1,0,1,.19,1,3.17v2.67Zm4.06-3.23A2.58,2.58,0,0,1,30,27.57a1.82,1.82,0,0,1-.82.76,2.84,2.84,0,0,1-1.22.26,4.48,4.48,0,0,1-.64,0v-4l.75,0a2.7,2.7,0,0,1,1.25.26,1.8,1.8,0,0,1,.93,1.69v0Z"/><path class="cls-1" d="M33.89,29.71c0,3.2,0,3.4-1,3.4v.29c.59,0,1.47,0,2.62,0s2.41,0,3.29,0c0-.72,0-1.51.08-2.11h-.27c-.12,1-.47,1.1-1.17,1.12H35.57c-.47,0-.5,0-.5-.53V28.83h1.48c1.1,0,1.4,0,1.48.74h.26c0-.4,0-.81,0-1.25s0-.74,0-1.07H38c-.09.62-.4.64-1.52.64H35.07V24.52h2c1,0,1.24.19,1.29,1.22h.27c0-.76,0-1.48.09-2.17l-3.26,0-2.47,0v.29c.93,0,.93.2.93,3.19v2.66Z"/><path class="cls-1" d="M41.94,29.71c0,3.2,0,3.4-1,3.4v.29c.59,0,1.47,0,2.62,0s2.4,0,3.28,0c0-.72,0-1.51.09-2.11h-.28c-.11,1-.46,1.1-1.16,1.12H43.62c-.48,0-.5,0-.5-.53V28.83H44.6c1.1,0,1.4,0,1.48.74h.26c0-.4-.05-.81-.05-1.25s0-.74.05-1.07h-.26c-.09.62-.41.64-1.52.64H43.12V24.52h2c1.05,0,1.25.19,1.3,1.22h.27c0-.76,0-1.48.09-2.17l-3.26,0-2.47,0v.29c.93,0,.93.2.93,3.19v2.66Z"/><path class="cls-1" d="M57.38,27.08c0-3,0-3.22.95-3.22v-.29l-1.51,0-1.56,0v.29c1.11,0,1.11.22,1.11,3.22s0,3.46,0,4h0c-.66-.87-1.05-1.34-1.64-2-.9-1.05-2.32-2.73-4.64-5.49h-.22V29.7c0,3.18,0,3.41-1.1,3.41v.29c.53,0,.93,0,1.51,0l1.68,0v-.29c-1.08,0-1.08-.23-1.08-3.41V26.05h0c.63.83,1.09,1.38,1.69,2.07l4.59,5.36h.22v-6.4Z"/><path class="cls-2" d="M61,29.71c0,3.2,0,3.4-1,3.4v.29c.55,0,1,0,1.62,0s1,0,1.54,0v-.29c-1,0-1-.2-1-3.06V29.3H63c.84,1.27,1.64,2.49,2.48,3.75a.75.75,0,0,0,.64.32h1.66v-.27a1.63,1.63,0,0,1-1.34-.83c-1.36-2-1.78-2.52-2.25-3.2v0a3.2,3.2,0,0,0,1-.52,2.82,2.82,0,0,0,1-2.24,2.49,2.49,0,0,0-1.59-2.49,4.74,4.74,0,0,0-1.67-.25h-.76l-.74,0H59.94v.27c1,0,1,.2,1,3.19v2.66Zm3.92-3.33A1.94,1.94,0,0,1,64.09,28a2.47,2.47,0,0,1-1.37.36l-.61,0V24.53c.18,0,.51,0,.81,0a1.76,1.76,0,0,1,2,1.86v0Z"/><path class="cls-2" d="M74.5,30.54c.89,2.38,1,2.57-.1,2.57v.29c.39,0,1,0,1.72,0s1.11,0,1.38,0v-.29c-.73,0-.82-.2-2.06-3.4L73,23.43h-.25l-2.5,6.28c-1.28,3.2-1.4,3.4-2.14,3.4v.29c.29,0,.77,0,1.41,0s1.18,0,1.63,0v-.29c-1.1,0-1-.2-.09-2.57Zm-3.09-.92v0c1.24-3.23,1.33-3.49,1.39-3.72h0c.05.24.15.49,1.33,3.72v0Z"/><path class="cls-1" d="M87,27.08c0-3,0-3.22,1-3.22v-.29l-1.52,0-1.55,0v.29c1.1,0,1.1.22,1.1,3.22s0,3.46,0,4h0c-.67-.87-1.06-1.34-1.65-2C83.4,28,82,26.28,79.67,23.52h-.23V29.7c0,3.18,0,3.41-1.09,3.41v.29c.53,0,.93,0,1.5,0l1.68,0v-.29c-1.07,0-1.07-.23-1.07-3.41V26.05h0c.64.83,1.09,1.38,1.69,2.07l4.59,5.36H87v-6.4Z"/><path class="cls-1" d="M92.45,29.71c0,3.21,0,3.4-1.12,3.4v.29c.43,0,1.08,0,1.72,0s1.24,0,1.69,0v-.29c-1.12,0-1.12-.19-1.12-3.4v-5.2h1.76c1,0,1.17.22,1.22,1.3h.27V23.58h-7.7v2.23h.26c.09-1.06.3-1.3,1.28-1.3h1.74v5.2Z"/><path class="cls-2" d="M103,30.54c.89,2.38,1,2.57-.1,2.57v.29c.39,0,1.06,0,1.72,0s1.12,0,1.38,0v-.29c-.73,0-.81-.2-2.06-3.4l-2.41-6.28h-.26l-2.5,6.28c-1.28,3.2-1.39,3.4-2.13,3.4v.29c.29,0,.76,0,1.4,0s1.18,0,1.63,0v-.29c-1.1,0-1-.2-.09-2.57Zm-3.09-.92v0c1.24-3.23,1.33-3.49,1.39-3.72h0c.06.24.16.49,1.33,3.72l0,0Z"/></g></g></svg>