<?xml version="1.0" ?><!DOCTYPE svg  PUBLIC '-//W3C//DTD SVG 1.1//EN'  'http://www.w3.org/Graphics/SVG/1.1/DTD/svg11.dtd'><svg enable-background="new 0 0 24 24" height="24px" id="Layer_1" version="1.1" viewBox="0 0 24 24" width="24px" xml:space="preserve" xmlns="http://www.w3.org/2000/svg" xmlns:xlink="http://www.w3.org/1999/xlink"><g><path d="M15.2,0c-1,0-1.4,0.4-2,1L0.3,14c-0.4,0.4-0.4,1,0,1.4l8.3,8.3c0.4,0.4,1,0.4,1.4,0l13-12.9c0.7-0.7,1-1.2,1-1.9V0H15.2z    M22,9.1L9.4,21.6l-7-7L14.9,2H22V9.1z"/><rect height="1" transform="matrix(-0.7072 -0.707 0.707 -0.7072 1.3357 33.3901)" width="5.9" x="4.6" y="15.9"/><rect height="1" transform="matrix(-0.7071 -0.7071 0.7071 -0.7071 4.6866 31.9999)" width="5.9" x="6" y="14.5"/><rect height="1" transform="matrix(-0.7071 -0.7071 0.7071 -0.7071 8.0392 30.6112)" width="5.9" x="7.4" y="13.1"/><path d="M18,8c1.1,0,2-0.9,2-2s-0.9-2-2-2s-2,0.9-2,2S16.9,8,18,8z M18,5c0.6,0,1,0.4,1,1s-0.4,1-1,1s-1-0.4-1-1S17.4,5,18,5z"/></g></svg>