<svg xmlns="http://www.w3.org/2000/svg" viewBox="0 0 23 23"><defs><style>.cls-1{fill:none;stroke:#969696;stroke-linecap:round;stroke-linejoin:round;}</style></defs><title>calendar-grey</title><g id="Layer_2" data-name="Layer 2"><g id="uudet_graffat" data-name="uudet graffat"><g id="Interface-Essential_Date_Calendar_calendar-1" data-name="Interface-Essential / Date/Calendar / calendar-1"><g id="Group_291" data-name="Group 291"><g id="calendar-1"><path id="Rectangle-path_81" data-name="Rectangle-path 81" class="cls-1" d="M.5,3.5a1,1,0,0,1,1-1h20a1,1,0,0,1,1,1v18a1,1,0,0,1-1,1H1.5a1,1,0,0,1-1-1Z"/><path id="Shape_1472" data-name="Shape 1472" class="cls-1" d="M3.5.5v3"/><path id="Shape_1473" data-name="Shape 1473" class="cls-1" d="M7.5.5v3"/><path id="Shape_1474" data-name="Shape 1474" class="cls-1" d="M11.5.5v3"/><path id="Shape_1475" data-name="Shape 1475" class="cls-1" d="M15.5.5v3"/><path id="Shape_1476" data-name="Shape 1476" class="cls-1" d="M19.5.5v3"/><path id="Shape_1477" data-name="Shape 1477" class="cls-1" d="M12.5,7.5h3v4h-4v-3A1,1,0,0,1,12.5,7.5Z"/><path id="Shape_1478" data-name="Shape 1478" class="cls-1" d="M15.5,7.5h3a1,1,0,0,1,1,1v3h-4Z"/><path id="Rectangle-path_82" data-name="Rectangle-path 82" class="cls-1" d="M11.5,11.5h4v4h-4Z"/><path id="Rectangle-path_83" data-name="Rectangle-path 83" class="cls-1" d="M15.5,11.5h4v4h-4Z"/><path id="Rectangle-path_84" data-name="Rectangle-path 84" class="cls-1" d="M11.5,15.5h4v4h-4Z"/><path id="Shape_1479" data-name="Shape 1479" class="cls-1" d="M15.5,15.5h4v3a1,1,0,0,1-1,1h-3Z"/><path id="Shape_1480" data-name="Shape 1480" class="cls-1" d="M4.5,11.5h3v4h-4v-3A1,1,0,0,1,4.5,11.5Z"/><path id="Rectangle-path_85" data-name="Rectangle-path 85" class="cls-1" d="M7.5,11.5h4v4h-4Z"/><path id="Shape_1481" data-name="Shape 1481" class="cls-1" d="M3.5,15.5h4v4h-3a1,1,0,0,1-1-1Z"/><path id="Rectangle-path_86" data-name="Rectangle-path 86" class="cls-1" d="M7.5,15.5h4v4h-4Z"/></g></g></g></g></g></svg>